<svg width="32" height="32" viewBox="0 0 32 32" fill="none" xmlns="http://www.w3.org/2000/svg">
<rect width="32" height="32" rx="4" fill="#00A587"/>
<path d="M14 21H13.333C12.8026 21 12.2939 20.7893 11.9188 20.4142C11.5437 20.0391 11.333 19.5304 11.333 19V17.111C11.333 16.556 10 16 10 16C10 16 11.333 15.444 11.333 14.889V13C11.333 12.4696 11.5437 11.9609 11.9188 11.5858C12.2939 11.2107 12.8026 11 13.333 11H14M18 21H18.667C18.9296 21 19.1897 20.9483 19.4324 20.8478C19.675 20.7472 19.8955 20.5999 20.0812 20.4142C20.2669 20.2285 20.4142 20.008 20.5148 19.7654C20.6153 19.5227 20.667 19.2626 20.667 19V17.111C20.667 16.556 22 16 22 16C22 16 20.667 15.444 20.667 14.889V13C20.667 12.4696 20.4563 11.9609 20.0812 11.5858C19.7061 11.2107 19.1974 11 18.667 11H18" stroke="white" stroke-width="1.5" stroke-linecap="round" stroke-linejoin="round"/>
<path d="M25 7.6V24.4C25 24.5591 24.9368 24.7117 24.8243 24.8243C24.7117 24.9368 24.5591 25 24.4 25H7.6C7.44087 25 7.28826 24.9368 7.17574 24.8243C7.06321 24.7117 7 24.5591 7 24.4V7.6C7 7.44087 7.06321 7.28826 7.17574 7.17574C7.28826 7.06321 7.44087 7 7.6 7H24.4C24.5591 7 24.7117 7.06321 24.8243 7.17574C24.9368 7.28826 25 7.44087 25 7.6Z" stroke="white" stroke-width="1.5" stroke-linecap="round" stroke-linejoin="round"/>
</svg>
