<svg width="32" height="32" viewBox="0 0 32 32" fill="none" xmlns="http://www.w3.org/2000/svg">
<path d="M8 19V14C8 12.3431 9.34315 11 11 11H21C22.6569 11 24 12.3431 24 14V19H25C25.5523 19 26 19.4477 26 20V21C26 21.5523 25.5523 22 25 22H24V23.5C24 24.6046 23.1046 25.5 22 25.5H10C8.89543 25.5 8 24.6046 8 23.5V22H7C6.44772 22 6 21.5523 6 21V20C6 19.4477 6.44772 19 7 19H8Z" stroke="#09090B" stroke-width="1.5"/>
<path d="M16 7V11" stroke="#09090B" stroke-width="1.5"/>
<circle cx="16" cy="7" r="2" fill="#09090B"/>
<circle cx="12.5" cy="20" r="2" fill="#09090B"/>
<circle cx="19.5" cy="20" r="2" fill="#09090B"/>
</svg>
